<svg width="100%" height="100%" viewBox="0 0 110.608 91.948" xmlns="http://www.w3.org/2000/svg">
  <g id="svgGroup" stroke-linecap="round" fill-rule="evenodd" font-size="9pt" stroke="#000" stroke-width="0.14px"
    fill="none" style="none">
    <path
      d="M 18.285 86.578 A 23.62 23.62 0 0 0 32.785 91.948 A 21.24 21.24 0 0 0 35.415 91.738 A 28.976 28.976 0 0 0 36.565 91.561 C 39.71 91.01 41.301 90.107 41.301 88.871 A 1.487 1.487 0 0 0 41.295 88.738 C 41.075 86.268 33.875 84.308 26.185 84.638 A 61.88 61.88 0 0 0 18.525 85.488 A 24.8 24.8 0 0 1 15.964 83.054 C 14.542 81.493 13.411 79.838 12.645 78.242 A 13.079 13.079 0 0 1 11.855 76.198 A 8.41 8.41 0 0 1 11.694 75.52 C 10.645 70.126 15.65 66.392 20.377 63.878 A 54.433 54.433 0 0 1 22.215 62.948 A 10.65 10.65 0 0 0 28.685 53.138 A 27.09 27.09 0 0 1 30.075 46.318 A 6.533 6.533 0 0 1 30.366 45.547 C 31.019 44.097 32.061 43.193 32.54 43.193 A 0.327 0.327 0 0 1 32.595 43.198 A 0.203 0.203 0 0 1 32.655 43.23 C 32.767 43.317 32.857 43.535 32.895 43.847 A 2.873 2.873 0 0 1 32.915 44.198 A 52.705 52.705 0 0 0 33.018 46.533 C 33.181 48.896 33.507 50.471 34.04 51.378 A 1.748 1.748 0 0 0 35.255 52.318 A 1.271 1.271 0 0 1 35.27 52.318 C 35.484 52.321 37.535 52.337 39.32 49.414 A 10.685 10.685 0 0 0 39.625 48.878 L 59.375 15.878 A 1.66 1.66 0 0 0 59.565 14.578 A 2 2 0 0 0 58.565 13.358 L 57.095 12.538 A 11.603 11.603 0 0 0 62.22 5.221 A 18.01 18.01 0 0 0 62.645 1.148 L 64.065 1.588 A 32.53 32.53 0 0 1 74.065 6.708 A 20.609 20.609 0 0 0 70.961 8.914 A 11.896 11.896 0 0 0 66.635 17.298 L 65.015 16.298 A 1.73 1.73 0 0 0 63.665 16.108 A 1.75 1.75 0 0 0 62.585 16.948 L 43.865 50.538 C 43.625 50.948 38.105 59.618 41.235 63.358 A 1.467 1.467 0 0 0 41.941 63.821 C 43.201 64.216 45.537 63.409 49.405 61.288 C 49.839 61.059 50.199 60.964 50.376 61.024 A 0.173 0.173 0 0 1 50.465 61.088 A 0.35 0.35 0 0 1 50.475 61.102 C 50.713 61.501 50.399 62.713 49.421 63.742 A 5.009 5.009 0 0 1 48.835 64.268 C 48.605 64.448 48.335 64.638 48.035 64.858 C 45.175 66.948 39.235 71.228 41.745 78.758 C 41.875 79.158 42.025 79.558 42.175 79.948 A 18 18 0 0 0 56.565 91.008 A 18.9 18.9 0 0 0 59.435 91.168 C 68.615 90.908 75.645 89.278 80.125 86.418 A 21.14 21.14 0 0 0 86.555 90.018 C 86.638 90.045 94.13 92.28 106.553 91.454 A 87.161 87.161 0 0 0 110.165 91.138 A 0.5 0.5 0 0 0 110.605 90.588 A 0.49 0.49 0 0 0 110.055 90.148 A 86.035 86.035 0 0 1 107.067 90.421 C 95.157 91.297 87.73 89.305 86.936 89.095 A 1.014 1.014 0 0 0 86.865 89.078 A 19.91 19.91 0 0 1 80.985 85.818 A 13 13 0 0 0 83.315 83.668 A 11.18 11.18 0 0 0 83.707 83.174 C 84.478 82.145 84.863 81.218 84.833 80.48 A 1.648 1.648 0 0 0 84.725 79.948 A 1.35 1.35 0 0 0 83.605 79.108 A 4.14 4.14 0 0 0 80.345 80.898 A 3.61 3.61 0 0 0 77.255 79.568 A 1.43 1.43 0 0 0 76.145 80.568 A 1.835 1.835 0 0 0 76.084 81.048 C 76.084 81.981 76.714 83.13 77.875 84.258 A 15.17 15.17 0 0 0 79.335 85.718 C 76.54 87.437 72.21 89.009 65.483 89.75 A 75.65 75.65 0 0 1 59.405 90.158 A 18 18 0 0 1 56.705 90.008 A 17 17 0 0 1 43.095 79.548 A 17.554 17.554 0 0 1 42.883 78.978 A 51.354 51.354 0 0 1 42.685 78.408 A 11.839 11.839 0 0 1 42.599 78.142 C 40.769 72.27 44.732 68.577 47.621 66.391 A 58.367 58.367 0 0 1 48.615 65.658 A 69.331 69.331 0 0 0 48.897 65.457 C 48.987 65.393 49.074 65.33 49.157 65.269 A 12.105 12.105 0 0 0 49.435 65.058 A 6.047 6.047 0 0 0 50.382 64.143 C 51.184 63.18 51.626 62.046 51.521 61.193 A 1.505 1.505 0 0 0 51.295 60.548 A 1.142 1.142 0 0 0 51.236 60.464 C 51.004 60.167 50.436 59.737 49.273 60.251 A 4.474 4.474 0 0 0 48.935 60.418 C 43.587 63.34 42.32 63.046 42.018 62.751 A 0.381 0.381 0 0 1 41.995 62.728 C 39.959 60.259 42.694 54.436 44.325 51.682 A 21.159 21.159 0 0 1 44.715 51.048 L 63.425 17.428 A 0.74 0.74 0 0 1 63.895 17.068 A 0.78 0.78 0 0 1 64.475 17.148 L 66.595 18.428 A 0.64 0.64 0 0 0 67.235 18.428 A 0.66 0.66 0 0 0 67.575 17.878 C 67.735 13.408 70.085 10.048 74.975 7.288 A 0.66 0.66 0 0 0 75.045 6.188 A 34.13 34.13 0 0 0 64.365 0.618 L 62.495 0.028 A 0.66 0.66 0 0 0 61.915 0.128 A 0.65 0.65 0 0 0 61.645 0.658 C 61.679 3.714 61.143 6.159 59.964 8.146 A 11.32 11.32 0 0 1 56.085 11.978 A 0.69 0.69 0 0 0 55.775 12.548 A 0.65 0.65 0 0 0 56.105 13.098 L 58.105 14.198 A 1 1 0 0 1 58.635 14.808 A 0.66 0.66 0 0 1 58.555 15.338 L 38.795 48.448 C 37.439 50.964 35.93 51.334 35.516 51.388 A 0.946 0.946 0 0 1 35.405 51.398 A 0.499 0.499 0 0 1 35.171 51.276 C 34.766 50.929 34.177 49.692 33.981 45.536 A 56.333 56.333 0 0 1 33.935 44.238 A 4.489 4.489 0 0 0 33.921 43.953 C 33.813 42.656 33.157 42.364 32.755 42.308 A 1.233 1.233 0 0 0 32.564 42.293 C 31.351 42.293 29.937 44.007 29.294 45.72 A 6.591 6.591 0 0 0 29.165 46.098 A 27.05 27.05 0 0 0 27.725 53.178 A 9.63 9.63 0 0 1 21.785 62.098 A 64.642 64.642 0 0 0 21.474 62.249 C 15.874 64.992 8.942 69.43 10.905 76.508 A 20.55 20.55 0 0 0 17.285 85.748 A 108.38 108.38 0 0 0 0.285 90.488 A 0.5 0.5 0 0 0 0.645 91.418 A 106.39 106.39 0 0 1 18.285 86.578 Z M 57.019 70.055 L 57.019 70.131 C 56.92 70.837 56.806 71.604 56.685 72.333 C 56.606 72.419 56.446 72.62 56.428 72.821 A 0.408 0.408 0 0 0 56.427 72.857 A 0.348 0.348 0 0 0 56.657 73.186 C 56.723 73.214 56.802 73.229 56.89 73.229 A 0.728 0.728 0 0 0 57.542 72.823 C 57.64 72.651 57.707 72.429 57.74 72.166 C 58.249 71.611 58.743 70.943 59.153 70.26 C 59.084 70.609 58.993 71.262 58.993 71.824 C 58.993 72.447 59.062 73.221 59.806 73.221 C 60.188 73.221 60.576 72.91 60.918 72.509 A 5.904 5.904 0 0 0 60.947 72.475 A 0.759 0.759 0 0 0 60.937 72.606 C 60.937 73.085 61.362 73.563 62.198 73.563 C 62.851 73.563 63.678 73.039 64.498 72.264 C 64.802 72.325 65.144 72.356 65.516 72.356 L 65.645 72.356 C 65.741 72.59 65.838 72.943 66.038 73.151 A 0.512 0.512 0 0 0 66.418 73.32 C 66.738 73.32 66.951 73.153 66.951 72.728 C 66.951 72.515 66.89 72.34 66.86 72.097 C 67.566 71.794 68.189 71.27 68.447 70.951 C 68.485 70.905 68.492 70.86 68.492 70.822 C 68.485 70.738 68.424 70.693 68.356 70.693 C 68.31 70.693 68.264 70.708 68.219 70.753 C 68.219 70.753 67.657 71.376 66.86 71.748 A 6.056 6.056 0 0 1 66.904 71.406 C 67.065 70.375 67.496 68.915 67.564 68.688 A 8.889 8.889 0 0 1 67.573 68.658 A 2.531 2.531 0 0 0 67.754 68.386 C 67.87 68.183 67.949 67.98 67.982 67.809 A 0.865 0.865 0 0 0 67.999 67.648 A 0.434 0.434 0 0 0 67.986 67.539 C 67.961 67.444 67.901 67.385 67.808 67.382 A 0.23 0.23 0 0 0 67.801 67.382 C 67.346 67.382 67.057 67.526 66.746 68.536 L 66.609 68.984 C 66.138 69.683 65.599 70.374 65.053 70.981 C 64.787 70.829 64.498 70.738 64.202 70.738 C 63.655 70.738 63.276 70.951 63.276 71.376 C 63.276 71.665 63.504 71.915 63.898 72.09 C 63.261 72.621 62.661 72.948 62.205 72.948 A 0.885 0.885 0 0 1 62.03 72.933 A 0.659 0.659 0 0 1 61.97 72.917 A 0.505 0.505 0 0 0 62.006 72.89 C 62.097 72.814 62.198 72.677 62.198 72.469 A 0.605 0.605 0 0 0 62.092 72.12 C 61.988 71.97 61.814 71.877 61.605 71.877 A 0.626 0.626 0 0 0 61.351 71.928 A 8.779 8.779 0 0 0 61.587 71.552 C 61.695 71.371 61.786 71.205 61.856 71.072 C 61.871 71.05 61.879 71.004 61.879 70.974 C 61.879 70.906 61.819 70.868 61.759 70.867 A 0.146 0.146 0 0 0 61.757 70.867 A 0.108 0.108 0 0 0 61.73 70.871 C 61.701 70.878 61.671 70.898 61.648 70.929 A 0.176 0.176 0 0 0 61.643 70.936 C 61.165 71.718 60.702 72.477 60.337 72.477 C 60.011 72.477 59.942 72.143 59.942 71.596 C 59.942 70.845 60.132 69.675 60.337 68.718 C 60.523 68.423 60.634 68.071 60.653 67.81 A 1.069 1.069 0 0 0 60.656 67.731 C 60.656 67.519 60.588 67.374 60.436 67.374 C 59.989 67.374 59.725 67.521 59.528 68.473 A 6.465 6.465 0 0 0 59.517 68.529 C 59.494 68.65 59.464 68.772 59.456 68.908 C 58.978 69.766 58.401 70.609 57.794 71.3 C 57.824 70.207 58.105 68.65 58.105 68.65 A 2.055 2.055 0 0 0 58.266 68.344 C 58.345 68.158 58.393 67.973 58.41 67.82 A 1.04 1.04 0 0 0 58.416 67.709 C 58.416 67.504 58.348 67.374 58.196 67.374 C 57.749 67.374 57.492 67.521 57.282 68.472 A 6.802 6.802 0 0 0 57.27 68.529 C 57.239 68.658 57.216 68.802 57.186 68.946 A 14.312 14.312 0 0 1 55.637 71.205 C 54.793 72.203 53.905 72.913 53.234 72.947 A 0.986 0.986 0 0 1 53.185 72.948 C 53.101 72.948 53.025 72.94 52.942 72.917 A 0.451 0.451 0 0 0 52.961 72.902 C 53.046 72.83 53.131 72.706 53.131 72.523 C 53.131 72.158 52.843 71.87 52.478 71.87 A 0.579 0.579 0 0 0 52.174 71.951 C 51.984 72.066 51.879 72.291 51.879 72.538 C 51.879 73.039 52.357 73.563 53.238 73.563 C 54.415 73.563 56.017 71.832 57.019 70.055 Z M 81.327 68.001 A 0.599 0.599 0 0 0 81.198 67.858 C 81.036 67.719 80.789 67.616 80.464 67.575 A 2.575 2.575 0 0 0 80.148 67.557 C 79.381 67.557 78.432 67.678 77.779 68.87 A 1.311 1.311 0 0 1 77.492 68.675 C 77.406 68.597 77.34 68.511 77.295 68.422 A 0.579 0.579 0 0 1 77.232 68.164 C 77.232 67.777 77.657 67.693 77.657 67.625 C 77.657 67.601 77.638 67.582 77.608 67.575 A 0.118 0.118 0 0 0 77.581 67.572 C 76.911 67.572 76.394 67.825 76.226 68.174 A 0.57 0.57 0 0 0 76.169 68.422 A 0.473 0.473 0 0 0 76.206 68.602 C 76.322 68.885 76.713 69.18 77.438 69.348 A 4.344 4.344 0 0 0 77.543 69.371 C 77.212 70.117 77.009 70.965 76.732 71.663 A 5.114 5.114 0 0 1 76.564 72.044 C 76.169 71.885 75.683 71.733 75.159 71.733 A 2.504 2.504 0 0 0 74.648 71.782 C 74.006 71.916 73.694 72.303 73.694 72.69 C 73.694 73.168 74.172 73.578 75.091 73.578 A 3.597 3.597 0 0 0 75.773 73.516 C 76.232 73.428 76.603 73.249 76.905 73.009 A 64.831 64.831 0 0 0 76.941 73.03 C 77.371 73.289 77.82 73.548 78.492 73.548 C 79.274 73.548 80.035 72.89 80.598 72.233 A 8.375 8.375 0 0 0 80.881 71.884 A 1.641 1.641 0 0 0 80.846 72.181 C 80.846 73.016 81.628 73.502 82.722 73.502 C 84.506 73.502 85.691 71.695 86.139 71.042 C 86.161 71.004 86.169 70.974 86.169 70.943 C 86.169 70.868 86.117 70.83 86.057 70.829 A 0.145 0.145 0 0 0 86.055 70.829 A 0.143 0.143 0 0 0 86.026 70.832 C 85.996 70.839 85.964 70.856 85.941 70.89 A 10.491 10.491 0 0 1 85.675 71.235 C 84.912 72.182 84.185 72.682 83.177 72.682 A 1.167 1.167 0 0 1 82.576 72.527 C 82.32 72.374 82.152 72.109 82.152 71.748 A 1.09 1.09 0 0 1 82.321 71.16 C 82.498 70.876 82.791 70.673 83.084 70.532 A 2.921 2.921 0 0 1 83.147 70.503 C 83.39 70.609 83.648 70.647 83.868 70.647 A 1.235 1.235 0 0 0 84.078 70.63 C 84.35 70.583 84.495 70.445 84.518 70.307 A 0.239 0.239 0 0 0 84.521 70.267 A 0.27 0.27 0 0 0 84.433 70.071 C 84.352 69.994 84.216 69.941 84.028 69.941 A 2.961 2.961 0 0 0 83.631 69.972 A 6.45 6.45 0 0 0 83.481 69.994 C 83.39 69.88 83.314 69.713 83.276 69.47 C 83.466 69.485 83.671 69.493 83.891 69.493 C 85.756 69.493 86.321 68.78 86.364 68.36 A 0.51 0.51 0 0 0 86.366 68.308 A 0.617 0.617 0 0 0 86.101 67.773 C 85.907 67.635 85.589 67.549 85.091 67.549 C 84.088 67.549 82.957 68.035 82.524 68.711 C 82.358 68.577 82.256 68.416 82.229 68.25 A 0.56 0.56 0 0 1 82.221 68.157 A 0.488 0.488 0 0 1 82.242 68.011 C 82.329 67.732 82.646 67.619 82.646 67.579 C 82.646 67.573 82.628 67.566 82.586 67.565 A 0.488 0.488 0 0 0 82.57 67.564 C 82.142 67.564 81.777 67.667 81.525 67.833 A 0.851 0.851 0 0 0 81.327 68.001 Z M 69.221 69.464 C 69.238 69.441 69.253 69.425 69.274 69.425 A 0.045 0.045 0 0 1 69.293 69.429 C 69.326 69.444 69.343 69.501 69.343 69.592 C 69.343 69.903 69.138 70.488 68.507 70.488 A 0.851 0.851 0 0 1 68.203 70.434 C 67.858 70.303 67.676 69.95 67.652 69.597 A 1.192 1.192 0 0 1 67.649 69.516 C 67.649 68.612 68.705 67.617 70.193 67.617 A 4.345 4.345 0 0 1 70.369 67.621 C 70.665 67.633 71.019 67.672 71.264 67.716 C 71.281 67.707 71.531 67.58 71.781 67.548 A 0.848 0.848 0 0 1 71.886 67.542 C 72.175 67.542 72.403 67.716 72.403 67.944 C 72.403 68.126 72.258 68.354 71.894 68.354 A 1.142 1.142 0 0 1 71.74 68.342 A 2.665 2.665 0 0 1 71.461 68.286 C 70.945 69.022 70.869 69.744 70.664 70.48 C 70.816 70.45 71.112 70.404 71.279 70.381 A 110.225 110.225 0 0 0 71.281 70.381 C 71.667 70.327 71.756 70.309 72.005 70.246 A 48.384 48.384 0 0 0 72.099 70.222 A 11.297 11.297 0 0 1 72.181 69.999 C 72.649 68.77 73.365 67.542 74.081 67.542 C 74.392 67.542 74.673 67.777 74.673 68.286 C 74.673 69.143 73.876 69.882 73.078 70.316 A 4.637 4.637 0 0 1 73.056 70.328 A 15.049 15.049 0 0 0 72.946 70.697 C 72.799 71.219 72.699 71.692 72.699 71.976 C 72.699 72.166 72.743 72.32 72.887 72.374 A 0.353 0.353 0 0 0 73.01 72.394 C 73.238 72.394 73.375 72.226 74.445 70.89 A 0.214 0.214 0 0 1 74.457 70.876 A 0.138 0.138 0 0 1 74.559 70.829 C 74.635 70.829 74.673 70.883 74.673 70.943 C 74.673 70.974 74.665 70.996 74.65 71.027 C 73.39 72.75 72.957 73.191 72.425 73.191 A 0.853 0.853 0 0 1 72.259 73.175 C 71.982 73.12 71.811 72.924 71.725 72.653 A 1.633 1.633 0 0 1 71.659 72.166 C 71.659 71.778 71.757 71.3 71.932 70.715 C 71.734 70.761 71.529 70.799 71.302 70.829 A 31.436 31.436 0 0 0 71.28 70.832 C 70.923 70.884 70.758 70.914 70.535 70.966 A 14.62 14.62 0 0 1 70.4 71.428 C 70.05 72.555 69.541 73.563 68.477 73.563 C 68.263 73.563 68.092 73.522 67.96 73.45 A 0.739 0.739 0 0 1 67.589 72.758 C 67.589 72.324 67.855 71.558 69.007 70.994 A 4.892 4.892 0 0 1 69.464 70.799 C 69.753 69.766 70.117 68.589 70.831 68.111 C 70.633 68.065 70.406 68.043 70.223 68.043 C 69.37 68.043 68.746 68.545 68.621 69.047 A 0.751 0.751 0 0 0 68.599 69.227 C 68.599 69.4 68.664 69.538 68.798 69.594 A 0.383 0.383 0 0 0 68.948 69.622 A 0.49 0.49 0 0 0 68.96 69.622 C 69.129 69.618 69.179 69.525 69.218 69.469 M 93.512 69.464 C 93.528 69.441 93.543 69.425 93.565 69.425 A 0.045 0.045 0 0 1 93.584 69.429 C 93.617 69.444 93.633 69.501 93.633 69.592 C 93.633 69.903 93.428 70.488 92.798 70.488 A 0.851 0.851 0 0 1 92.494 70.434 C 92.148 70.303 91.967 69.95 91.943 69.597 A 1.192 1.192 0 0 1 91.94 69.516 C 91.94 68.612 92.995 67.617 94.483 67.617 A 4.345 4.345 0 0 1 94.66 67.621 C 94.955 67.633 95.309 67.672 95.554 67.716 C 95.572 67.707 95.822 67.58 96.072 67.548 A 0.848 0.848 0 0 1 96.177 67.542 C 96.465 67.542 96.693 67.716 96.693 67.944 C 96.693 68.126 96.549 68.354 96.184 68.354 A 1.142 1.142 0 0 1 96.031 68.342 A 2.665 2.665 0 0 1 95.752 68.286 C 95.235 69.022 95.159 69.744 94.954 70.48 C 95.106 70.45 95.402 70.404 95.569 70.381 A 110.225 110.225 0 0 0 95.571 70.381 C 95.957 70.327 96.047 70.309 96.295 70.246 A 48.384 48.384 0 0 0 96.389 70.222 A 11.297 11.297 0 0 1 96.471 69.999 C 96.939 68.77 97.655 67.542 98.371 67.542 C 98.682 67.542 98.963 67.777 98.963 68.286 C 98.963 69.143 98.166 69.882 97.368 70.316 A 4.637 4.637 0 0 1 97.346 70.328 A 15.049 15.049 0 0 0 97.236 70.697 C 97.089 71.219 96.989 71.692 96.989 71.976 C 96.989 72.166 97.034 72.32 97.177 72.374 A 0.353 0.353 0 0 0 97.3 72.394 C 97.528 72.394 97.665 72.226 98.736 70.89 A 0.214 0.214 0 0 1 98.747 70.876 A 0.138 0.138 0 0 1 98.849 70.829 C 98.925 70.829 98.963 70.883 98.963 70.943 C 98.963 70.974 98.956 70.996 98.941 71.027 C 97.68 72.75 97.247 73.191 96.716 73.191 A 0.853 0.853 0 0 1 96.549 73.175 C 96.272 73.12 96.101 72.924 96.016 72.653 A 1.633 1.633 0 0 1 95.949 72.166 C 95.949 71.778 96.048 71.3 96.222 70.715 C 96.025 70.761 95.82 70.799 95.592 70.829 A 31.436 31.436 0 0 0 95.57 70.832 C 95.213 70.884 95.048 70.914 94.825 70.966 A 14.62 14.62 0 0 1 94.691 71.428 C 94.341 72.555 93.831 73.563 92.767 73.563 C 92.553 73.563 92.383 73.522 92.251 73.45 A 0.739 0.739 0 0 1 91.879 72.758 C 91.879 72.324 92.145 71.558 93.298 70.994 A 4.892 4.892 0 0 1 93.755 70.799 C 94.043 69.766 94.408 68.589 95.121 68.111 C 94.924 68.065 94.696 68.043 94.514 68.043 C 93.66 68.043 93.036 68.545 92.912 69.047 A 0.751 0.751 0 0 0 92.889 69.227 C 92.889 69.4 92.954 69.538 93.088 69.594 A 0.383 0.383 0 0 0 93.238 69.622 A 0.49 0.49 0 0 0 93.251 69.622 C 93.42 69.618 93.47 69.525 93.509 69.469 M 19.585 86.358 A 21.74 21.74 0 0 0 35.285 90.788 C 39.181 90.262 40.288 89.376 40.288 88.905 A 0.287 0.287 0 0 0 40.285 88.868 A 0.823 0.823 0 0 0 40.063 88.419 C 38.941 87.113 33.692 85.356 26.205 85.668 A 57.72 57.72 0 0 0 19.585 86.308 L 19.585 86.358 Z M 91.036 68.536 L 90.9 68.984 C 90.429 69.683 89.89 70.374 89.343 70.981 C 89.077 70.829 88.789 70.738 88.492 70.738 C 87.946 70.738 87.566 70.951 87.566 71.376 C 87.566 71.665 87.794 71.915 88.189 72.09 C 87.551 72.621 86.951 72.948 86.495 72.948 A 0.885 0.885 0 0 1 86.321 72.933 A 0.659 0.659 0 0 1 86.26 72.917 A 0.505 0.505 0 0 0 86.296 72.89 C 86.388 72.814 86.488 72.677 86.488 72.469 A 0.605 0.605 0 0 0 86.383 72.12 C 86.278 71.97 86.104 71.877 85.896 71.877 C 85.486 71.877 85.227 72.234 85.227 72.606 C 85.227 73.085 85.653 73.563 86.488 73.563 C 87.141 73.563 87.969 73.039 88.789 72.264 C 89.092 72.325 89.434 72.356 89.806 72.356 L 89.935 72.356 C 90.032 72.59 90.128 72.943 90.328 73.151 A 0.512 0.512 0 0 0 90.709 73.32 C 91.029 73.32 91.241 73.153 91.241 72.728 C 91.241 72.515 91.18 72.34 91.15 72.097 C 91.856 71.794 92.479 71.27 92.737 70.951 C 92.775 70.905 92.783 70.86 92.783 70.822 C 92.775 70.738 92.714 70.693 92.646 70.693 C 92.6 70.693 92.555 70.708 92.509 70.753 C 92.509 70.753 91.947 71.376 91.15 71.748 A 6.056 6.056 0 0 1 91.194 71.406 C 91.355 70.375 91.787 68.915 91.855 68.688 A 8.889 8.889 0 0 1 91.864 68.658 A 2.531 2.531 0 0 0 92.044 68.386 C 92.16 68.183 92.239 67.98 92.272 67.809 A 0.865 0.865 0 0 0 92.289 67.648 A 0.434 0.434 0 0 0 92.276 67.539 C 92.252 67.444 92.191 67.385 92.098 67.382 A 0.23 0.23 0 0 0 92.092 67.382 C 91.636 67.382 91.347 67.526 91.036 68.536 Z M 77.665 80.548 A 0.65 0.65 0 0 0 77.465 80.548 A 0.44 0.44 0 0 0 77.105 80.878 A 0.709 0.709 0 0 0 77.078 81.026 C 77.042 81.467 77.321 82.225 78.169 83.174 A 9.167 9.167 0 0 0 78.595 83.618 A 17.89 17.89 0 0 0 80.195 85.178 A 12.32 12.32 0 0 0 82.555 83.038 A 10.068 10.068 0 0 0 83.031 82.424 C 83.781 81.37 83.932 80.649 83.805 80.328 A 0.33 0.33 0 0 0 83.485 80.108 C 82.885 80.028 81.785 80.578 80.785 81.958 A 0.49 0.49 0 0 1 80.405 82.168 A 0.51 0.51 0 0 1 80.005 81.998 A 3.57 3.57 0 0 0 77.665 80.498 L 77.665 80.548 Z M 81.241 70.913 C 80.748 71.551 79.92 72.629 78.606 72.629 C 78.22 72.629 77.908 72.571 77.621 72.481 A 3.907 3.907 0 0 1 77.452 72.424 C 78.06 71.573 78.295 70.412 78.583 69.493 C 78.69 69.501 78.796 69.501 78.902 69.501 C 80.224 69.501 80.914 69.142 81.22 68.784 A 0.968 0.968 0 0 0 81.267 68.726 A 0.885 0.885 0 0 0 81.409 68.884 C 81.592 69.048 81.881 69.201 82.289 69.312 A 3.841 3.841 0 0 0 82.342 69.326 A 1.401 1.401 0 0 0 82.389 69.666 C 82.429 69.815 82.494 69.943 82.574 70.054 A 1.237 1.237 0 0 0 82.699 70.199 A 3.598 3.598 0 0 0 81.473 70.921 A 0.12 0.12 0 0 0 81.468 70.904 C 81.451 70.865 81.413 70.845 81.363 70.845 C 81.325 70.845 81.271 70.875 81.241 70.913 Z M 85.258 68.316 A 0.336 0.336 0 0 0 85.215 68.149 C 85.148 68.03 84.997 67.944 84.741 67.944 C 83.876 67.944 83.36 68.506 83.268 69.037 C 83.42 69.068 83.587 69.083 83.77 69.083 C 84.377 69.083 84.848 68.946 85.106 68.673 C 85.205 68.567 85.258 68.438 85.258 68.316 Z M 78.781 69.091 L 78.713 69.091 C 78.986 68.278 79.381 68.027 79.867 68.005 L 79.92 68.005 C 80.239 68.005 80.368 68.157 80.368 68.339 C 80.368 69.015 79.221 69.091 78.781 69.091 Z M 74.544 72.652 A 0.313 0.313 0 0 0 74.624 72.858 C 74.732 72.984 74.936 73.062 75.159 73.062 C 75.645 73.062 75.987 72.864 76.252 72.538 C 75.918 72.371 75.592 72.219 75.273 72.219 A 1.831 1.831 0 0 0 75.231 72.219 C 74.808 72.229 74.544 72.387 74.544 72.652 Z M 66.214 70.26 C 66.07 70.753 65.949 71.27 65.888 71.733 C 65.759 71.558 65.607 71.399 65.447 71.262 C 65.713 70.936 65.971 70.602 66.214 70.26 Z M 90.505 70.26 C 90.36 70.753 90.239 71.27 90.178 71.733 C 90.049 71.558 89.897 71.399 89.738 71.262 C 90.004 70.936 90.262 70.602 90.505 70.26 Z M 68.464 72.613 A 0.258 0.258 0 0 0 68.576 72.637 C 68.815 72.637 68.99 72.333 69.149 71.877 A 9.077 9.077 0 0 0 69.305 71.376 C 68.53 71.756 68.34 72.204 68.34 72.401 C 68.34 72.498 68.386 72.575 68.464 72.613 Z M 92.754 72.613 A 0.258 0.258 0 0 0 92.866 72.637 C 93.105 72.637 93.28 72.333 93.44 71.877 A 9.077 9.077 0 0 0 93.595 71.376 C 92.821 71.756 92.631 72.204 92.631 72.401 C 92.631 72.498 92.676 72.575 92.754 72.613 Z M 74.075 68.518 A 0.098 0.098 0 0 0 74.043 68.513 C 73.83 68.513 73.534 69.037 73.283 69.69 A 3.366 3.366 0 0 0 73.341 69.65 C 73.801 69.326 74.023 68.993 74.097 68.773 A 0.496 0.496 0 0 0 74.126 68.62 C 74.126 68.576 74.116 68.533 74.075 68.518 Z M 98.365 68.518 A 0.098 0.098 0 0 0 98.333 68.513 C 98.121 68.513 97.824 69.037 97.574 69.69 A 3.366 3.366 0 0 0 97.632 69.65 C 98.092 69.326 98.313 68.993 98.387 68.773 A 0.496 0.496 0 0 0 98.417 68.62 C 98.417 68.576 98.406 68.533 98.365 68.518 Z M 63.914 71.406 C 63.914 71.285 64.012 71.156 64.233 71.156 A 0.163 0.163 0 0 1 64.25 71.157 C 64.265 71.159 64.282 71.162 64.297 71.163 A 0.141 0.141 0 0 0 64.308 71.163 C 64.438 71.171 64.582 71.224 64.734 71.315 C 64.574 71.482 64.407 71.642 64.248 71.786 C 64.053 71.686 63.952 71.57 63.923 71.468 A 0.223 0.223 0 0 1 63.914 71.406 Z M 88.204 71.406 C 88.204 71.285 88.303 71.156 88.523 71.156 A 0.163 0.163 0 0 1 88.54 71.157 C 88.555 71.159 88.572 71.162 88.587 71.163 A 0.141 0.141 0 0 0 88.599 71.163 C 88.728 71.171 88.872 71.224 89.024 71.315 C 88.865 71.482 88.698 71.642 88.538 71.786 C 88.344 71.686 88.242 71.57 88.213 71.468 A 0.223 0.223 0 0 1 88.204 71.406 Z M 65.342 71.879 A 2.691 2.691 0 0 0 65.121 71.627 C 65.022 71.741 64.916 71.854 64.81 71.961 C 64.992 71.999 65.204 72.014 65.447 72.021 A 3.515 3.515 0 0 0 65.342 71.879 Z M 89.633 71.879 A 2.691 2.691 0 0 0 89.411 71.627 C 89.313 71.741 89.206 71.854 89.1 71.961 C 89.282 71.999 89.495 72.014 89.738 72.021 A 3.515 3.515 0 0 0 89.633 71.879 Z" />
  </g>
</svg>