<svg xmlns="http://www.w3.org/2000/svg" viewBox="0 0.00000249894 35.35 4.66">
  <path
    d="M3.8589 2.015 3.8589 2.072A73.9478 73.9478 0 013.7105 3.0852 52.7786 52.7786 0 013.6081 3.725C3.5489 3.7896 3.4287 3.9406 3.4155 4.0917A.3065.3065 0 003.4143 4.1183C3.4143 4.2755 3.538 4.3863 3.7315 4.3968A.5632.5632 0 003.762 4.3976C4.1154 4.3976 4.3377 4.0955 4.4004 3.5996 4.7823 3.1835 5.1528 2.6819 5.4606 2.1689 5.4093 2.4311 5.3409 2.9213 5.3409 3.3431 5.3409 3.8105 5.3922 4.3919 5.9508 4.3919A.5626.5626 0 006.0554 4.3818C6.3078 4.3341 6.5601 4.1218 6.7859 3.8575A4.4317 4.4317 0 006.8073 3.8319.57.57 0 006.8001 3.9302.6426.6426 0 007.0093 4.3982C7.167 4.547 7.4132 4.6484 7.7463 4.6484 8.2365 4.6484 8.8578 4.2551 9.4734 3.6737A3.4245 3.4245 0 009.8601 3.7271 4.5515 4.5515 0 0010.2372 3.7421L10.3341 3.7421C10.4423 4.0041 10.5506 4.4654 10.9148 4.466A.4708.4708 0 0011.1098 4.4291C11.2373 4.3716 11.3145 4.2433 11.3145 4.0214 11.3145 3.8618 11.2689 3.7307 11.2461 3.5483 11.7762 3.3203 12.2436 2.927 12.4374 2.6876A.1513.1513 0 0012.4563 2.6591C12.4624 2.6471 12.4662 2.6353 12.4685 2.624A.1669.1669 0 0012.4716 2.5907C12.4659 2.528 12.4203 2.4938 12.369 2.4938 12.3348 2.4938 12.3006 2.5052 12.2664 2.5394 12.2664 2.5394 11.9634 2.8752 11.5066 3.1476A2.9233 2.9233 0 0111.2461 3.2861C11.3259 2.4653 11.7819.9662 11.7819.9662 11.9814.704 12.1011.4019 12.1011.2081 12.1011.0884 12.0498.0086 11.9529.0086 11.6109.0086 11.3943.1169 11.1606.875L11.058 1.2113C10.7046 1.7357 10.2999 2.2544 9.8895 2.7104 9.69 2.5964 9.4734 2.528 9.2511 2.528 8.8407 2.528 8.5557 2.6876 8.5557 3.0068A.4479.4479 0 008.6764 3.3046C8.7562 3.396 8.8737 3.4765 9.0231 3.5426 8.5443 3.9416 8.094 4.1867 7.752 4.1867 7.6893 4.1867 7.6323 4.181 7.5753 4.1639 7.6494 4.1126 7.7463 4.0043 7.7463 3.8276A.4545.4545 0 007.6673 3.5655C7.5889 3.4528 7.458 3.383 7.3017 3.383A.4701.4701 0 007.1109 3.4214 6.5904 6.5904 0 007.288 3.1391C7.3687 3.0033 7.4371 2.8785 7.4898 2.7788 7.5012 2.7617 7.5069 2.7275 7.5069 2.7047 7.5069 2.6534 7.4613 2.6249 7.4157 2.6249 7.3872 2.6249 7.353 2.642 7.3302 2.6762A15.9751 15.9751 0 016.9665 3.2531C6.8134 3.4802 6.6668 3.6662 6.5323 3.7623A.3226.3226 0 016.3498 3.8333C6.1047 3.8333 6.0534 3.5825 6.0534 3.1721 6.0534 2.6316 6.1841 1.8035 6.3304 1.1035A18.3516 18.3516 0 016.3498 1.0118C6.5037.7667 6.5892.4703 6.5892.2708 6.5892.1112 6.5379.0029 6.4239.0029A.5047.5047 0 005.996.1657C5.8898.2902 5.806.5049 5.7342.8693 5.7171.9605 5.6943 1.0517 5.6886 1.1543A10.7351 10.7351 0 014.5255 2.8512 7.9671 7.9671 0 014.4403 2.9498 7.213 7.213 0 014.455 2.656C4.5087 1.8764 4.674.9605 4.674.9605 4.8279.7211 4.9077.4361 4.9077.2537A.5166.5166 0 004.8997.1583C4.8812.0609 4.8306.0029 4.7424.0029 4.4004.0029 4.2066.1169 4.047.8693 4.0242.9662 4.0071 1.0745 3.9843 1.1828 3.135 2.7161 1.8183 4.1867.9804 4.1867.9177 4.1867.8607 4.181.798 4.1639.865 4.1136.9376 4.0195.9404 3.8763A.4406.4406 0 00.9405 3.8675C.9405 3.5939.7239 3.3773.4503 3.3773.1653 3.3773 0 3.611 0 3.8789 0 4.2346.321 4.6056.915 4.645A1.5931 1.5931 0 001.0203 4.6484C1.9038 4.6484 3.1065 3.3488 3.8589 2.015ZM22.1065.4733A.45.45 0 0022.0094.3662C21.8513.2297 21.5851.1397 21.2211.1397 20.6454.1397 19.9329.2309 19.4427 1.1258 19.2702 1.0376 19.144.9185 19.08.7892A.4348.4348 0 0119.0323.5957C19.0323.305 19.3515.2423 19.3515.191 19.3515.1682 19.3287.1511 19.2945.1511 18.7917.1511 18.403.3412 18.2774.6034A.4278.4278 0 0018.2343.7895C18.2343 1.046 18.5478 1.3538 19.266 1.502 18.9696 2.1689 18.81 2.9441 18.5307 3.5084 18.2343 3.3887 17.8695 3.2747 17.4762 3.2747 16.7352 3.2747 16.3761 3.6338 16.3761 3.9929A.5502.5502 0 0016.5909 4.4225C16.7654 4.5664 17.045 4.6598 17.4249 4.6598A2.7004 2.7004 0 0017.937 4.6135C18.2814 4.547 18.5599 4.4126 18.7872 4.2323A48.6675 48.6675 0 0018.814 4.2485C19.1364 4.4427 19.4738 4.637 19.9785 4.637 20.5651 4.637 21.1364 4.1436 21.5592 3.6502A6.2873 6.2873 0 0021.7713 3.388 1.2317 1.2317 0 0021.7455 3.611C21.7455 4.1611 22.1974 4.5093 22.8625 4.5865A2.5265 2.5265 0 0023.1534 4.6028C24.4929 4.6028 25.3821 3.2462 25.7184 2.756 25.7355 2.7275 25.7412 2.7047 25.7412 2.6819 25.7412 2.6249 25.7013 2.5964 25.6557 2.5964 25.6272 2.5964 25.593 2.6078 25.5702 2.642A7.8756 7.8756 0 0125.3704 2.9012C25.1379 3.1893 24.91 3.4224 24.6706 3.5977A1.9104 1.9104 0 0123.4954 3.9872C23.0736 3.9872 22.7259 3.7364 22.7259 3.2861 22.7259 2.8278 23.0758 2.5419 23.4256 2.3732A2.1931 2.1931 0 0123.4726 2.3513C23.655 2.4311 23.8488 2.4596 24.0141 2.4596 24.3447 2.4596 24.5043 2.3114 24.5043 2.1746 24.5043 2.0492 24.3789 1.9295 24.1338 1.9295A2.2231 2.2231 0 0023.8357 1.9526 4.8418 4.8418 0 0023.7234 1.9694C23.655 1.8839 23.598 1.7585 23.5695 1.5761 23.712 1.5875 23.8659 1.5932 24.0312 1.5932 25.4904 1.5932 25.8894 1.0118 25.8894.704A.4633.4633 0 0025.6902.3017C25.5446.1988 25.3058.134 24.9318.134 24.1794.134 23.3301.4988 23.0052 1.0061 22.857.8864 22.7772.7382 22.7772.59 22.7772.2993 23.0964.191 23.0964.1568 23.0964.1511 23.0793.1454 23.0394.1454 22.7185.1454 22.4441.2228 22.2549.347A.639.639 0 0022.1065.4733ZM13.025 1.5633C13.035 1.5504 13.0451 1.5419 13.0587 1.5419A.0336.0336 0 0113.073 1.5449C13.0977 1.5564 13.11 1.5995 13.11 1.6673 13.11 1.901 12.9561 2.3399 12.483 2.3399 12.0498 2.3399 11.8389 1.9637 11.8389 1.6103 11.8389.932 12.6312.1853 13.7484.1853 13.9878.1853 14.3298.2195 14.5521.2594 14.5652.2526 14.7529.1571 14.9405.1335A.6364.6364 0 0115.0195.1283C15.2361.1283 15.4071.2594 15.4071.4304 15.4071.5672 15.2988.7382 15.0252.7382 14.9283.7382 14.8143.7154 14.7003.6869 14.3127 1.2398 14.2557 1.7813 14.1018 2.3342 14.2158 2.3114 14.4381 2.2772 14.5635 2.2601 14.8884 2.2145 14.934 2.2031 15.1791 2.1404A8.4806 8.4806 0 0115.2407 1.9733C15.5918 1.0508 16.1293.1283 16.6668.1283 16.9005.1283 17.1114.305 17.1114.6869 17.1114 1.3367 16.5015 1.8953 15.8973 2.2202 15.7434 2.7161 15.6294 3.1949 15.6294 3.4571 15.6295 3.634 15.6808 3.7706 15.8631 3.7706 16.0341 3.7706 16.1367 3.6452 16.9404 2.642 16.9632 2.6135 16.9917 2.5964 17.0259 2.5964 17.0829 2.5964 17.1114 2.6363 17.1114 2.6819 17.1114 2.7047 17.1057 2.7218 17.0943 2.7446 16.1481 4.0385 15.8232 4.3691 15.4242 4.3691 15.1412 4.3691 14.9748 4.2065 14.8987 3.9655A1.2258 1.2258 0 0114.8485 3.5996 2.2941 2.2941 0 0114.8749 3.2696C14.8917 3.1546 14.9163 3.0313 14.948 2.8993A7.4487 7.4487 0 0115.0537 2.5109C14.9055 2.5451 14.7516 2.5736 14.5806 2.5964 14.3013 2.6363 14.1759 2.6591 14.0049 2.699A10.975 10.975 0 0113.904 3.0457C13.6411 3.8921 13.2585 4.6484 12.4602 4.6484 11.9814 4.6484 11.7933 4.3748 11.7933 4.0442 11.7933 3.6794 12.0441 3.0011 13.2012 2.5736 13.3477 2.0494 13.5202 1.4756 13.7823 1.048A1.5614 1.5614 0 0114.2272.5558C14.079.5216 13.908.5045 13.7712.5045 13.1302.5045 12.6618.8813 12.5684 1.2582A.5637.5637 0 0012.5514 1.3937.4304.4304 0 0012.5618 1.4908C12.5895 1.6101 12.6725 1.6901 12.8136 1.6901 12.9258 1.6901 12.9711 1.6404 13.0005 1.5986ZM31.2593 1.5633C31.2693 1.5504 31.2794 1.5419 31.293 1.5419A.0336.0336 0 0131.3073 1.5449C31.332 1.5564 31.3443 1.5995 31.3443 1.6673 31.3443 1.901 31.1904 2.3399 30.7173 2.3399 30.2841 2.3399 30.0732 1.9637 30.0732 1.6103 30.0732.932 30.8655.1853 31.9827.1853 32.2221.1853 32.5641.2195 32.7864.2594 32.7995.2526 32.9872.1571 33.1748.1335A.6364.6364 0 0133.2538.1283C33.4704.1283 33.6414.2594 33.6414.4304 33.6414.5672 33.5331.7382 33.2595.7382 33.1626.7382 33.0486.7154 32.9346.6869 32.547 1.2398 32.49 1.7813 32.3361 2.3342 32.4501 2.3114 32.6724 2.2772 32.7978 2.2601 33.1227 2.2145 33.1683 2.2031 33.4134 2.1404A8.4806 8.4806 0 0133.475 1.9733C33.8261 1.0508 34.3636.1283 34.9011.1283 35.1348.1283 35.3457.305 35.3457.6869 35.3457 1.3367 34.7358 1.8953 34.1316 2.2202 33.9777 2.7161 33.8637 3.1949 33.8637 3.4571 33.8638 3.634 33.9151 3.7706 34.0974 3.7706 34.2684 3.7706 34.371 3.6452 35.1747 2.642 35.1975 2.6135 35.226 2.5964 35.2602 2.5964 35.3172 2.5964 35.3457 2.6363 35.3457 2.6819 35.3457 2.7047 35.34 2.7218 35.3286 2.7446 34.3824 4.0385 34.0575 4.3691 33.6585 4.3691 33.3755 4.3691 33.2091 4.2065 33.133 3.9655A1.2258 1.2258 0 0133.0828 3.5996 2.2941 2.2941 0 0133.1092 3.2696C33.126 3.1546 33.1506 3.0313 33.1823 2.8993A7.4487 7.4487 0 0133.288 2.5109C33.1398 2.5451 32.9859 2.5736 32.8149 2.5964 32.5356 2.6363 32.4102 2.6591 32.2392 2.699A10.975 10.975 0 0132.1383 3.0457C31.8754 3.8921 31.4928 4.6484 30.6945 4.6484 30.2157 4.6484 30.0276 4.3748 30.0276 4.0442 30.0276 3.6794 30.2784 3.0011 31.4355 2.5736 31.582 2.0494 31.7545 1.4756 32.0166 1.048A1.5614 1.5614 0 0132.4615.5558C32.3133.5216 32.1423.5045 32.0055.5045 31.3645.5045 30.8961.8813 30.8027 1.2582A.5637.5637 0 0030.7857 1.3937.4304.4304 0 0030.7961 1.4908C30.8238 1.6101 30.9068 1.6901 31.0479 1.6901 31.1601 1.6901 31.2054 1.6404 31.2348 1.5986ZM29.3949.875 29.2923 1.2113C28.9389 1.7357 28.5342 2.2544 28.1238 2.7104 27.9243 2.5964 27.7077 2.528 27.4854 2.528 27.075 2.528 26.79 2.6876 26.79 3.0068A.4479.4479 0 0026.9107 3.3046C26.9905 3.396 27.108 3.4765 27.2574 3.5426 26.7786 3.9416 26.3283 4.1867 25.9863 4.1867 25.9236 4.1867 25.8666 4.181 25.8096 4.1639 25.8837 4.1126 25.9806 4.0043 25.9806 3.8276A.4545.4545 0 0025.9016 3.5655C25.8232 3.4528 25.6923 3.383 25.536 3.383A.4701.4701 0 0025.242 3.4825.57.57 0 0025.0344 3.9302.6426.6426 0 0025.2436 4.3982C25.4013 4.547 25.6475 4.6484 25.9806 4.6484 26.4708 4.6484 27.0921 4.2551 27.7077 3.6737A3.4245 3.4245 0 0028.0944 3.7271 4.5515 4.5515 0 0028.4715 3.7421L28.5684 3.7421C28.6766 4.0041 28.7849 4.4654 29.1491 4.466A.4708.4708 0 0029.3441 4.4291C29.4716 4.3716 29.5488 4.2433 29.5488 4.0214 29.5488 3.8618 29.5032 3.7307 29.4804 3.5483 30.0105 3.3203 30.4779 2.927 30.6717 2.6876A.1513.1513 0 0030.6906 2.6591C30.6967 2.6471 30.7005 2.6353 30.7028 2.624A.1669.1669 0 0030.7059 2.5907C30.7002 2.528 30.6546 2.4938 30.6033 2.4938 30.5691 2.4938 30.5349 2.5052 30.5007 2.5394 30.5007 2.5394 30.1977 2.8752 29.7409 3.1476A2.9233 2.9233 0 0129.4804 3.2861C29.5602 2.4653 30.0162.9662 30.0162.9662 30.2157.704 30.3354.4019 30.3354.2081 30.3354.0884 30.2841.0086 30.1872.0086 29.8452.0086 29.6286.1169 29.3949.875ZM21.8885 2.855A14.5653 14.5653 0 0022.0419 2.6591C22.0647 2.6306 22.1046 2.6078 22.1331 2.6078 22.1712 2.6078 22.1998 2.6235 22.2121 2.6526A.0897.0897 0 0122.2161 2.6649 2.7012 2.7012 0 0123.1363 2.1233.9286.9286 0 0123.0429 2.0144C22.9401 1.8738 22.8729 1.6952 22.8684 1.4678 22.5409 1.3837 22.3116 1.2647 22.168 1.136A.6647.6647 0 0122.0613 1.0174.7265.7265 0 0122.0262 1.0612C21.8359 1.2838 21.4481 1.5065 20.7568 1.5764A4.6783 4.6783 0 0120.2863 1.5989C20.2065 1.5989 20.1267 1.5989 20.0469 1.5932 19.8303 2.2829 19.6536 3.155 19.1976 3.7934A2.9328 2.9328 0 0019.3247 3.8365C19.5399 3.9038 19.7742 3.9473 20.064 3.9473 20.925 3.9473 21.5079 3.3303 21.8885 2.855ZM24.6696.4304C24.9432.4304 25.0572.5615 25.0572.7097 25.0572.8009 25.0173.8978 24.9432.9776A.8187.8187 0 0124.6608 1.1652C24.4699 1.2453 24.225 1.2854 23.94 1.2854A2.1443 2.1443 0 0123.7229 1.2749 1.6787 1.6787 0 0123.5638 1.2512C23.6322.8522 24.0198.4304 24.6696.4304ZM20.1951 1.2911 20.1438 1.2911A2.1403 2.1403 0 0120.2659.9963C20.4601.6179 20.7124.49 21.0102.476L21.0501.476C21.2895.476 21.3864.59 21.3864.7268 21.3864 1.2341 20.5257 1.2911 20.1951 1.2911ZM17.4762 4.2722C17.2311 4.2722 17.0145 4.1468 17.0145 3.9644A.2724.2724 0 0117.171 3.7199C17.2653 3.6676 17.3988 3.6395 17.5617 3.6395 17.8011 3.6395 18.0462 3.7535 18.297 3.8789 18.0975 4.124 17.841 4.2722 17.4762 4.2722ZM10.7616 2.1689C10.6533 2.5394 10.5621 2.927 10.5165 3.2747 10.4196 3.1436 10.3056 3.0239 10.1859 2.9213 10.3854 2.6762 10.5792 2.4254 10.7616 2.1689ZM28.9959 2.1689C28.8876 2.5394 28.7964 2.927 28.7508 3.2747 28.6539 3.1436 28.5399 3.0239 28.4202 2.9213 28.6197 2.6762 28.8135 2.4254 28.9959 2.1689ZM12.5343 3.953C12.426 3.953 12.3576 3.8789 12.3576 3.7763 12.3576 3.6281 12.5001 3.2918 13.0815 3.0068A6.814 6.814 0 0112.9647 3.3831C12.8453 3.7254 12.7139 3.953 12.5343 3.953ZM30.7686 3.953C30.6603 3.953 30.5919 3.8789 30.5919 3.7763 30.5919 3.6281 30.7344 3.2918 31.3158 3.0068A6.814 6.814 0 0131.199 3.3831C31.0796 3.7254 30.9482 3.953 30.7686 3.953ZM16.6623.8615A.0732.0732 0 0016.6383.8579.1471.1471 0 0016.5589.8858C16.4098.9837 16.2269 1.3281 16.0683 1.7414 16.5414 1.4222 16.701 1.0859 16.701.9377 16.701.905 16.6933.8722 16.6623.8615ZM34.8966.8615A.0732.0732 0 0034.8726.8579.1471.1471 0 0034.7932.8858C34.6441.9837 34.4612 1.3281 34.3026 1.7414 34.7757 1.4222 34.9353 1.0859 34.9353.9377 34.9353.905 34.9276.8722 34.8966.8615ZM9.0345 3.0296C9.0345 2.9384 9.1086 2.8415 9.2739 2.8415A.1224.1224 0 019.2867 2.8423C9.3014 2.8439 9.3178 2.8472 9.3309 2.8472 9.4105 2.8519 9.4979 2.8797 9.5897 2.9274A1.1283 1.1283 0 019.6501 2.9612C9.5304 3.0866 9.405 3.2063 9.2853 3.3146 9.1086 3.2234 9.0345 3.1151 9.0345 3.0296ZM27.2688 3.0296C27.2688 2.9384 27.3429 2.8415 27.5082 2.8415A.1224.1224 0 0127.521 2.8423C27.5357 2.8439 27.5521 2.8472 27.5652 2.8472 27.6448 2.8519 27.7322 2.8797 27.824 2.9274A1.1283 1.1283 0 0127.8844 2.9612C27.7647 3.0866 27.6393 3.2063 27.5196 3.3146 27.3429 3.2234 27.2688 3.1151 27.2688 3.0296ZM10.1071 3.3844A2.0199 2.0199 0 009.9408 3.1949C9.8667 3.2804 9.7869 3.3659 9.7071 3.4457 9.8439 3.4742 10.0035 3.4856 10.1859 3.4913A2.6388 2.6388 0 0010.1071 3.3844ZM28.3414 3.3844A2.0199 2.0199 0 0028.1751 3.1949C28.101 3.2804 28.0212 3.3659 27.9414 3.4457 28.0782 3.4742 28.2378 3.4856 28.4202 3.4913A2.6388 2.6388 0 0028.3414 3.3844Z"
    stroke="#000000" stroke-width="0.1px" fill="none" />
</svg>